<?xml version="1.0" encoding="UTF-8"?>
<!DOCTYPE svg PUBLIC "-//W3C//DTD SVG 1.1//EN" "http://www.w3.org/Graphics/SVG/1.1/DTD/svg11.dtd">
<svg xmlns="http://www.w3.org/2000/svg" version="1.1" width="229px" height="211px" style="shape-rendering:geometricPrecision; text-rendering:geometricPrecision; image-rendering:optimizeQuality; fill-rule:evenodd; clip-rule:evenodd" xmlns:xlink="http://www.w3.org/1999/xlink">
<g><path style="opacity:1" fill="#30edb7" d="M 131.5,48.5 C 131.5,58.5 131.5,68.5 131.5,78.5C 141.167,78.5 150.833,78.5 160.5,78.5C 170.59,80.4306 175.923,86.5972 176.5,97C 175.572,108.762 169.239,114.928 157.5,115.5C 149.167,115.5 140.833,115.5 132.5,115.5C 135.5,87.1667 122.833,74.5 94.5,77.5C 94.5,69.1667 94.5,60.8333 94.5,52.5C 96.5205,38.0117 104.854,32.1784 119.5,35C 126.195,37.1906 130.195,41.6906 131.5,48.5 Z"/></g>
<g><path style="opacity:0.645" fill="#87c3b2" d="M 94.5,52.5 C 94.5,60.8333 94.5,69.1667 94.5,77.5C 94.5,77.8333 94.5,78.1667 94.5,78.5C 84.5,78.5 74.5,78.5 64.5,78.5C 73.9856,77.5062 83.6522,77.1729 93.5,77.5C 93.1739,68.9832 93.5073,60.6499 94.5,52.5 Z"/></g>
<g><path style="opacity:1" fill="#0ea47a" d="M 94.5,77.5 C 122.833,74.5 135.5,87.1667 132.5,115.5C 132.167,115.5 131.833,115.5 131.5,115.5C 103.534,118.867 91.2005,106.534 94.5,78.5C 94.5,78.1667 94.5,77.8333 94.5,77.5 Z"/></g>
<g><path style="opacity:0.39" fill="#a1f6de" d="M 131.5,48.5 C 132.494,57.9856 132.827,67.6522 132.5,77.5C 142.015,77.1731 151.348,77.5064 160.5,78.5C 150.833,78.5 141.167,78.5 131.5,78.5C 131.5,68.5 131.5,58.5 131.5,48.5 Z"/></g>
<g><path style="opacity:1" fill="#13775a" d="M 64.5,78.5 C 74.5,78.5 84.5,78.5 94.5,78.5C 91.2005,106.534 103.534,118.867 131.5,115.5C 131.5,124.833 131.5,134.167 131.5,143.5C 129.569,153.59 123.403,158.923 113,159.5C 102.692,158.857 96.3591,153.524 94,143.5C 93.5002,134.173 93.3335,124.839 93.5,115.5C 83.4944,115.666 73.4944,115.5 63.5,115C 52.033,110.231 47.8664,101.731 51,89.5C 53.5861,83.4077 58.0861,79.741 64.5,78.5 Z"/></g>
<g><path style="opacity:0.495" fill="#a4d0c3" d="M 131.5,115.5 C 131.833,115.5 132.167,115.5 132.5,115.5C 140.833,115.5 149.167,115.5 157.5,115.5C 149.35,116.493 141.017,116.826 132.5,116.5C 132.827,125.682 132.493,134.682 131.5,143.5C 131.5,134.167 131.5,124.833 131.5,115.5 Z"/></g>
</svg>
